<svg width="100" height="100" viewBox="0 0 100 100" fill="none" xmlns="http://www.w3.org/2000/svg">
<rect width="100" height="100" rx="50" fill="#708B96"/>
<path d="M45.8873 61.9669C40.7361 60.6418 36.582 55.2588 36.582 49.1304C36.582 42.091 42.7302 35.9628 50.0414 35.9628C57.8514 36.1282 63.418 42.1738 63.418 49.1304C63.418 55.2588 59.6792 60.0622 54.1957 61.9669V70H69.3169V64.0372H58.9315V65.1966C65.7443 63.0435 69.4 56.1698 69.4 49.1304C69.4 38.6956 60.9254 30 50.0414 30C39.49 30 30.6 38.6956 30.6 49.1304C30.6 56.1698 34.1726 62.7121 40.7361 65.2795L40.9023 64.0372H30.6V70H45.8873V61.9669Z" fill="#EEE9E2"/>
</svg>
